HIERARCHY
ROOT Hips
{
	OFFSET 0.000000 0.000000 0.000000
	CHANNELS 6 Xposition Yposition Zposition Xrotation Yrotation Zrotation
	JOINT LeftUpLeg_virtual
	{
		OFFSET 0.000000 0.000000 0.000000
		CHANNELS 3 Xrotation Yrotation Zrotation
		JOINT LeftUpLeg
		{
			OFFSET 13.026900 -6.336304 -1.092800
			CHANNELS 3 Xrotation Yrotation Zrotation
			JOINT LeftLeg
			{
				OFFSET 0.524474 -46.096886 9.782700
				CHANNELS 3 Xrotation Yrotation Zrotation
				JOINT LeftFoot
				{
					OFFSET -0.524474 -53.427422 -12.948200
					CHANNELS 3 Xrotation Yrotation Zrotation
					JOINT LeftToeBase
					{
						OFFSET 0.192200 -14.009700 16.364100
						CHANNELS 3 Xrotation Yrotation Zrotation
						JOINT LeftToe_End
						{
							OFFSET -1.784700 -0.561700 9.474800
							CHANNELS 3 Xrotation Yrotation Zrotation
							End Site
							{
								OFFSET 0 0 0
							}
						}
					}
				}
			}
		}
	}
	JOINT RightUpLeg_virtual
	{
		OFFSET 0.000000 0.000000 0.000000
		CHANNELS 3 Xrotation Yrotation Zrotation
		JOINT RightUpLeg
		{
			OFFSET -12.883000 -6.336304 -1.092800
			CHANNELS 3 Xrotation Yrotation Zrotation
			JOINT RightLeg
			{
				OFFSET -0.524587 -46.096825 9.782800
				CHANNELS 3 Xrotation Yrotation Zrotation
				JOINT RightFoot
				{
					OFFSET 0.524587 -53.427383 -12.948300
					CHANNELS 3 Xrotation Yrotation Zrotation
					JOINT RightToeBase
					{
						OFFSET -0.192200 -14.009700 16.364100
						CHANNELS 3 Xrotation Yrotation Zrotation
						JOINT RightToe_End
						{
							OFFSET 1.784700 -0.561700 9.474800
							CHANNELS 3 Xrotation Yrotation Zrotation
							End Site
							{
								OFFSET 0 0 0
							}
						}
					}
				}
			}
		}
	}
	JOINT Spine_virtual
	{
		OFFSET 0.000000 0.000000 0.000000
		CHANNELS 3 Xrotation Yrotation Zrotation
		JOINT Spine
		{
			OFFSET 0.072000 7.257294 -0.789700
			CHANNELS 3 Xrotation Yrotation Zrotation
			JOINT Spine1
			{
				OFFSET 0.000000 12.508769 -0.658067
				CHANNELS 3 Xrotation Yrotation Zrotation
				JOINT Spine1_split
				{
					OFFSET 0.000000 12.508769 -0.658067
					CHANNELS 3 Xrotation Yrotation Zrotation
					JOINT Spine2
					{
						OFFSET 0.000000 12.508769 -0.658067
						CHANNELS 3 Xrotation Yrotation Zrotation
						JOINT Neck_virtual
						{
							OFFSET 0.000000 0.000000 0.000000
							CHANNELS 3 Xrotation Yrotation Zrotation
							JOINT Neck
							{
								OFFSET 0.000000 14.033295 7.520400
								CHANNELS 3 Xrotation Yrotation Zrotation
								JOINT Head
								{
									OFFSET 0.000000 8.198502 5.703100
									CHANNELS 3 Xrotation Yrotation Zrotation
									JOINT HeadTop_End
									{
										OFFSET 0.000000 17.760803 13.332701
										CHANNELS 3 Xrotation Yrotation Zrotation
										End Site
										{
											OFFSET 0 0 0
										}
									}
								}
							}
						}
						JOINT LeftShoulder_virtual
						{
							OFFSET 0.000000 0.000000 0.000000
							CHANNELS 3 Xrotation Yrotation Zrotation
							JOINT LeftShoulder
							{
								OFFSET 6.292450 5.785301 -0.669000
								CHANNELS 3 Xrotation Yrotation Zrotation
								JOINT LeftShoulder_split
								{
									OFFSET 6.292450 5.785301 -0.669000
									CHANNELS 3 Xrotation Yrotation Zrotation
									JOINT LeftArm
									{
										OFFSET 13.907140 -6.093903 1.965100
										CHANNELS 3 Xrotation Yrotation Zrotation
										JOINT LeftForeArm
										{
											OFFSET 34.140198 0.000000 0.000000
											CHANNELS 3 Xrotation Yrotation Zrotation
											JOINT LeftHand
											{
												OFFSET 40.960209 0.000000 0.000000
												CHANNELS 3 Xrotation Yrotation Zrotation
												End Site
												{
													OFFSET 0 0 0
												}
											}
										}
									}
								}
							}
						}
						JOINT RightShoulder_virtual
						{
							OFFSET 0.000000 0.000000 0.000000
							CHANNELS 3 Xrotation Yrotation Zrotation
							JOINT RightShoulder
							{
								OFFSET -6.292450 5.785301 -0.669000
								CHANNELS 3 Xrotation Yrotation Zrotation
								JOINT RightShoulder_split
								{
									OFFSET -6.292450 5.785301 -0.669000
									CHANNELS 3 Xrotation Yrotation Zrotation
									JOINT RightArm
									{
										OFFSET -13.907140 -6.093903 1.965100
										CHANNELS 3 Xrotation Yrotation Zrotation
										JOINT RightForeArm
										{
											OFFSET -34.140198 0.000000 0.000000
											CHANNELS 3 Xrotation Yrotation Zrotation
											JOINT RightHand
											{
												OFFSET -40.960209 0.000000 0.000000
												CHANNELS 3 Xrotation Yrotation Zrotation
												End Site
												{
													OFFSET 0 0 0
												}
											}
										}
									}
								}
							}
						}
					}
				}
			}
		}
	}
}
MOTION
Frames: 4
Frame Time: 0.03333333
-3.915205 85.744308 -0.399574 0.000000 0.000000 0.000000 10.788638 4.407317 -22.077156 -74.271040 13.221969 22.879916 96.909408 -5.646502 5.429067 25.232240 -3.918165 20.148819 -1.690605 -2.927923 -1.655274 0.000000 0.000000 0.000000 6.925091 5.166070 -21.469544 -17.478529 -9.574200 -12.656697 52.730474 9.111185 1.729940 11.045254 16.651812 -5.125675 -40.276328 0.453306 1.154406 0.000000 0.000000 0.000000 3.734939 8.453776 -19.791339 5.465751 5.986387 3.221529 2.240862 2.033172 1.554710 0.968859 1.978738 0.776219 0.000000 0.000000 0.000000 1.640830 1.022678 2.700890 -6.913613 2.943934 -2.703845 -15.002198 7.442324 3.215734 0.000000 0.000000 0.000000 2.128144 1.570074 1.353444 -0.978211 -5.504927 -4.955532 -1.588971 0.867742 -2.155496 62.074856 -16.628698 -42.383598 9.444959 -76.237916 9.845187 0.000000 0.000000 0.000000 3.580712 2.219965 2.182503 2.954660 -5.853893 8.048896 8.301532 4.654740 -6.470241 -15.952501 20.930983 55.967185 6.613648 76.835735 -6.377845 0.000000 0.000000 0.000000 
-4.251769 88.794846 16.280815 0.000000 0.000000 0.000000 7.524866 1.221962 -21.957877 -78.657920 11.748596 22.517756 78.631556 -3.317484 1.895386 26.615996 -2.561615 18.116225 -0.246833 -2.778905 -1.409729 0.000000 0.000000 0.000000 6.609376 0.404816 -21.698036 -9.991186 -11.131079 -12.745474 49.377777 9.329963 1.543136 14.947225 17.165770 1.197112 -40.837657 0.617871 0.846196 0.000000 0.000000 0.000000 4.735269 5.702603 -20.414727 3.512018 7.373611 3.434155 2.134849 2.526865 1.238706 0.788253 4.205672 0.066787 0.000000 0.000000 0.000000 1.653287 1.569548 2.501585 -6.190325 2.331896 -2.452603 -15.886759 8.103850 4.006447 0.000000 0.000000 0.000000 1.890801 2.221337 1.479702 -0.829009 -3.441328 -4.019284 -1.306193 2.573858 -2.017858 64.860439 -14.275707 -41.311590 8.040697 -79.172254 7.718919 0.000000 0.000000 0.000000 2.544593 2.604196 1.848725 2.150185 -4.360648 6.905167 7.545864 5.462068 -6.995277 -23.716027 26.141545 60.083883 34.308979 88.378878 -35.032839 0.000000 0.000000 0.000000 
-3.814404 92.402939 36.311535 0.000000 0.000000 0.000000 5.510081 -0.956230 -20.930937 -78.247788 8.049100 16.925086 55.743657 0.620720 -0.316241 26.434787 0.058118 15.771325 1.278565 -2.632868 -1.505895 0.000000 0.000000 0.000000 7.333162 -0.289632 -21.065425 0.685355 -10.391428 -11.694689 44.397131 9.036775 0.694065 17.493477 16.567047 7.237975 -38.488215 0.599897 1.398580 0.000000 0.000000 0.000000 5.685733 4.031575 -19.959910 1.892695 9.942766 3.279419 2.098544 3.614172 0.930530 0.763029 4.217050 -0.147148 0.000000 0.000000 0.000000 1.565483 2.648792 2.096962 -5.219105 1.370225 -1.473163 -16.139063 9.332138 4.313185 0.000000 0.000000 0.000000 1.544317 3.470771 1.446612 -0.857580 -0.753207 -3.218104 -1.095116 2.673163 -1.091360 67.068380 -12.208068 -42.478811 6.213163 -82.927089 5.177648 0.000000 0.000000 0.000000 1.872593 3.613986 1.344893 1.447425 -2.500652 5.841439 7.633709 3.946697 -6.449832 -29.569467 31.784220 63.898052 176.500025 79.612384 -178.091555 0.000000 0.000000 0.000000 
-2.366697 93.981255 56.980740 0.000000 0.000000 0.000000 4.385620 -0.776844 -19.330265 -74.135556 3.579277 8.305033 37.789664 4.850242 -0.472281 24.128074 3.718783 14.468651 2.681321 -2.496886 -1.869347 0.000000 0.000000 0.000000 8.918350 2.827737 -19.822145 9.686917 -8.091585 -10.583745 41.661726 7.494573 -0.594556 17.471496 12.555084 9.270832 -32.604355 0.613444 2.346193 0.000000 0.000000 0.000000 5.192525 4.716012 -18.804604 1.478280 12.718475 2.512531 2.244083 4.745160 0.776092 1.124163 2.555278 0.330425 0.000000 0.000000 0.000000 1.328111 3.701446 1.689491 -4.246807 0.691880 -0.069549 -15.659296 11.082869 4.120249 0.000000 0.000000 0.000000 1.298557 4.690032 1.319900 -0.950719 1.585215 -2.924832 -0.086654 1.900594 -0.318489 66.475267 -11.463439 -45.306106 2.691743 -85.760210 1.404511 0.000000 0.000000 0.000000 1.693147 4.646042 0.809552 0.824952 -0.876116 5.379577 8.578150 1.715228 -4.672701 -29.005225 35.491271 65.122698 177.848195 71.550999 -179.973996 0.000000 0.000000 0.000000 
